<svg width="174" height="135" viewBox="0 0 174 135" fill="none" xmlns="http://www.w3.org/2000/svg">
<g clip-path="url(#clip0)">
<path d="M7.16626 126.238H7.83V132.986H7.11866L2.89294 127.269V132.986H2.21863V126.238H2.92997L7.16626 131.955V126.238Z" fill="#132535"/>
<path d="M13.0818 132.985L13.0712 132.135C12.8702 132.431 12.6058 132.651 12.2805 132.797C11.9552 132.941 11.5797 133.014 11.1593 133.014C10.8155 133.014 10.5114 132.949 10.247 132.815C9.98254 132.685 9.77893 132.501 9.63613 132.271C9.49333 132.038 9.42194 131.779 9.42194 131.489C9.42194 131.052 9.59382 130.707 9.93494 130.456C10.2761 130.204 10.7468 130.079 11.3444 130.079H13.0632V129.692C13.0632 129.294 12.9416 128.983 12.701 128.765C12.4603 128.546 12.1086 128.438 11.6459 128.438C11.0985 128.438 10.5484 128.64 9.99577 129.045L9.70224 128.601C10.046 128.363 10.3766 128.187 10.6886 128.075C11.0006 127.962 11.3576 127.905 11.7622 127.905C12.381 127.905 12.8596 128.056 13.1955 128.363C13.5339 128.669 13.7058 129.092 13.7138 129.631L13.7243 132.98H13.0818V132.985ZM12.4312 132.161C12.7459 131.952 12.9601 131.659 13.0712 131.277V130.581H11.4211C10.9715 130.581 10.6304 130.654 10.3977 130.804C10.1624 130.953 10.046 131.175 10.046 131.471C10.046 131.774 10.1571 132.015 10.3818 132.201C10.6066 132.386 10.9028 132.475 11.2756 132.475C11.7305 132.475 12.1166 132.371 12.4312 132.161ZM13.0421 127.01H12.3678L11.6855 126.277L10.9927 127.01H10.3184L11.3232 125.804H12.0452L13.0421 127.01Z" fill="#132535"/>
<path d="M19.5843 128.433C19.9333 128.784 20.1052 129.265 20.1052 129.877V132.985H19.4415V130.032C19.4415 129.556 19.3092 129.181 19.0422 128.912C18.7751 128.642 18.4049 128.506 17.9289 128.506C17.4026 128.514 16.9795 128.674 16.6649 128.99C16.3502 129.307 16.1677 129.731 16.1228 130.265V132.988H15.4696V127.928H16.1228V129.106C16.2973 128.713 16.5564 128.417 16.8976 128.219C17.2387 128.02 17.6539 127.915 18.1431 127.91C18.7566 127.907 19.2352 128.083 19.5843 128.433Z" fill="#132535"/>
<path d="M26.2745 127.926V132.454C26.2745 132.944 26.1714 133.373 25.9625 133.739C25.7536 134.105 25.4574 134.388 25.0687 134.584C24.6826 134.78 24.2331 134.88 23.728 134.88C22.9744 134.88 22.2736 134.623 21.631 134.108L21.943 133.645C22.2022 133.87 22.4772 134.04 22.7628 134.158C23.0484 134.273 23.3604 134.333 23.6989 134.333C24.2833 134.333 24.7514 134.163 25.1004 133.825C25.4495 133.488 25.6214 133.035 25.6214 132.467V131.646C25.4389 131.999 25.1798 132.276 24.8413 132.475C24.5028 132.674 24.1114 132.774 23.6698 132.774C23.215 132.774 22.8104 132.669 22.4561 132.46C22.1017 132.25 21.824 131.96 21.6257 131.591C21.4274 131.222 21.3269 130.801 21.3269 130.33C21.3269 129.862 21.4274 129.443 21.6257 129.074C21.824 128.705 22.1017 128.42 22.4613 128.216C22.821 128.012 23.2256 127.907 23.6804 127.907C24.122 127.907 24.5107 128.007 24.8413 128.203C25.1718 128.399 25.4336 128.676 25.6214 129.038V127.928H26.2745V127.926ZM24.7329 132.007C25.0132 131.842 25.23 131.615 25.386 131.327C25.542 131.036 25.6214 130.712 25.6214 130.351C25.6214 129.985 25.542 129.655 25.386 129.367C25.23 129.077 25.0105 128.852 24.7329 128.687C24.4526 128.522 24.1379 128.441 23.7862 128.441C23.4345 128.441 23.1198 128.522 22.8395 128.687C22.5592 128.852 22.3397 129.079 22.181 129.367C22.0224 129.658 21.943 129.985 21.943 130.351C21.943 130.717 22.0224 131.044 22.181 131.332C22.3397 131.62 22.5592 131.845 22.8342 132.007C23.1119 132.172 23.4265 132.253 23.7862 132.253C24.1352 132.253 24.4526 132.169 24.7329 132.007Z" fill="#132535"/>
<path d="M32.7638 128.478C32.3989 128.478 32.071 128.561 31.7774 128.729C31.4839 128.896 31.2565 129.129 31.0952 129.43C30.9312 129.728 30.8519 130.071 30.8519 130.458C30.8519 130.845 30.9339 131.188 31.0952 131.492C31.2565 131.795 31.4866 132.028 31.7774 132.195C32.071 132.363 32.3989 132.447 32.7638 132.447C33.0943 132.447 33.3984 132.389 33.6761 132.274C33.9538 132.159 34.1838 131.991 34.3742 131.772L34.7444 132.159C34.517 132.428 34.2314 132.638 33.885 132.787C33.5412 132.936 33.1552 133.009 32.7347 133.009C32.2455 133.009 31.8118 132.902 31.4257 132.685C31.0397 132.467 30.7408 132.167 30.524 131.777C30.3072 131.387 30.1961 130.947 30.1961 130.458C30.1961 129.969 30.3045 129.529 30.524 129.14C30.7408 128.75 31.0423 128.449 31.4257 128.232C31.8092 128.017 32.2455 127.907 32.7347 127.907C33.1314 127.907 33.4936 127.973 33.8215 128.101C34.1495 128.229 34.4324 128.41 34.6651 128.642L34.2949 129.077C33.8797 128.676 33.3667 128.478 32.7638 128.478Z" fill="#132535"/>
<path d="M39.1156 132.985L39.1051 132.135C38.9041 132.431 38.6396 132.651 38.3144 132.797C37.9891 132.941 37.6136 133.014 37.1932 133.014C36.8494 133.014 36.5453 132.949 36.2809 132.815C36.0164 132.685 35.8128 132.501 35.67 132.271C35.5272 132.038 35.4558 131.779 35.4558 131.489C35.4558 131.052 35.6277 130.707 35.9688 130.456C36.3099 130.204 36.7806 130.079 37.3783 130.079H39.0971V129.692C39.0971 129.294 38.9755 128.983 38.7348 128.765C38.4942 128.546 38.1425 128.438 37.6797 128.438C37.1323 128.438 36.5823 128.64 36.0296 129.045L35.7361 128.601C36.0799 128.363 36.4104 128.187 36.7225 128.075C37.0345 127.962 37.3915 127.905 37.7961 127.905C38.4149 127.905 38.8935 128.056 39.2293 128.363C39.5678 128.669 39.7397 129.092 39.7476 129.631L39.7582 132.98H39.1156V132.985ZM38.4678 132.161C38.7824 131.952 38.9966 131.659 39.1077 131.277V130.581H37.4576C37.0081 130.581 36.6669 130.654 36.4342 130.804C36.1989 130.953 36.0825 131.175 36.0825 131.471C36.0825 131.774 36.1936 132.015 36.4184 132.201C36.6431 132.386 36.9393 132.475 37.3122 132.475C37.7644 132.475 38.1504 132.371 38.4678 132.161Z" fill="#132535"/>
<path d="M44.883 128.232C45.2744 128.449 45.5785 128.747 45.8006 129.134C46.0227 129.522 46.1312 129.958 46.1312 130.448C46.1312 130.942 46.0201 131.387 45.8006 131.774C45.5785 132.164 45.2744 132.465 44.883 132.682C44.4916 132.899 44.05 133.006 43.5555 133.006C43.061 133.006 42.6194 132.899 42.2281 132.682C41.8367 132.465 41.5326 132.164 41.3105 131.774C41.0883 131.384 40.9799 130.942 40.9799 130.448C40.9799 129.958 41.091 129.522 41.3105 129.134C41.5326 128.747 41.8367 128.446 42.2281 128.232C42.6194 128.017 43.061 127.907 43.5555 127.907C44.05 127.907 44.4916 128.015 44.883 128.232ZM42.5613 128.718C42.2677 128.886 42.0403 129.121 41.879 129.422C41.7151 129.726 41.6357 130.068 41.6357 130.456C41.6357 130.848 41.7177 131.196 41.879 131.499C42.0403 131.803 42.2704 132.036 42.5613 132.203C42.8548 132.371 43.1853 132.454 43.5555 132.454C43.9258 132.454 44.2589 132.371 44.5498 132.203C44.8434 132.036 45.0708 131.8 45.2321 131.499C45.3934 131.196 45.4754 130.848 45.4754 130.456C45.4754 130.068 45.3934 129.726 45.2321 129.422C45.0681 129.119 44.8407 128.886 44.5498 128.718C44.2563 128.551 43.9258 128.467 43.5555 128.467C43.1853 128.467 42.8521 128.551 42.5613 128.718Z" fill="#132535"/>
<path d="M52.2318 128.478C51.8668 128.478 51.5389 128.561 51.2454 128.729C50.9519 128.896 50.7245 129.129 50.5632 129.43C50.3992 129.728 50.3199 130.071 50.3199 130.458C50.3199 130.845 50.4018 131.188 50.5632 131.492C50.7245 131.795 50.9545 132.028 51.2454 132.195C51.5389 132.363 51.8668 132.447 52.2318 132.447C52.5623 132.447 52.8664 132.389 53.1441 132.274C53.4217 132.159 53.6518 131.991 53.8422 131.772L54.2124 132.159C53.985 132.428 53.6994 132.638 53.353 132.787C53.0092 132.936 52.6231 133.009 52.2027 133.009C51.7135 133.009 51.2798 132.902 50.8937 132.685C50.5076 132.467 50.2088 132.167 49.992 131.777C49.7751 131.387 49.6641 130.947 49.6641 130.458C49.6641 129.969 49.7725 129.529 49.992 129.14C50.2088 128.75 50.5103 128.449 50.8937 128.232C51.2771 128.017 51.7135 127.907 52.2027 127.907C52.5993 127.907 52.9616 127.973 53.2895 128.101C53.6174 128.229 53.9004 128.41 54.1331 128.642L53.7628 129.077C53.3477 128.676 52.8347 128.478 52.2318 128.478Z" fill="#132535"/>
<path d="M60.4769 127.491C60.4769 127.808 60.379 128.08 60.1833 128.308C59.9877 128.535 59.7312 128.669 59.4112 128.708C59.6122 128.933 59.7682 129.195 59.8792 129.49C59.9903 129.786 60.0458 130.105 60.0458 130.445C60.0458 130.94 59.9348 131.384 59.7153 131.772C59.4932 132.161 59.1891 132.462 58.7977 132.679C58.4063 132.897 57.9647 133.004 57.4702 133.004C56.9757 133.004 56.5341 132.897 56.1427 132.679C55.7514 132.462 55.4473 132.161 55.2251 131.772C55.003 131.382 54.8946 130.94 54.8946 130.445C54.8946 129.956 55.0057 129.519 55.2251 129.132C55.4473 128.745 55.7514 128.444 56.1427 128.229C56.5341 128.015 56.9757 127.905 57.4702 127.905C57.9462 127.905 58.3746 128.004 58.758 128.203C58.9008 128.255 59.0463 128.279 59.197 128.279C59.4112 128.279 59.5804 128.206 59.7047 128.062C59.829 127.918 59.8898 127.737 59.8898 127.525C59.8898 127.3 59.8211 127.091 59.6862 126.897L60.2415 126.696C60.3975 126.945 60.4769 127.209 60.4769 127.491ZM58.4672 132.203C58.7607 132.036 58.9881 131.8 59.1494 131.499C59.3107 131.196 59.3927 130.848 59.3927 130.456C59.3927 130.068 59.3107 129.726 59.1494 129.422C58.9854 129.119 58.758 128.886 58.4672 128.718C58.1736 128.551 57.8431 128.467 57.4729 128.467C57.1026 128.467 56.7695 128.551 56.4786 128.718C56.1851 128.886 55.9576 129.121 55.7963 129.422C55.6324 129.726 55.553 130.068 55.553 130.456C55.553 130.848 55.635 131.196 55.7963 131.499C55.9576 131.803 56.1877 132.036 56.4786 132.203C56.7721 132.371 57.1026 132.454 57.4729 132.454C57.8431 132.454 58.1736 132.371 58.4672 132.203Z" fill="#132535"/>
<path d="M68.5502 128.433C68.8992 128.784 69.0711 129.265 69.0711 129.877V132.986H68.4074V130.032C68.4074 129.556 68.2751 129.181 68.0081 128.912C67.741 128.642 67.3708 128.506 66.8948 128.506C66.3289 128.514 65.8846 128.697 65.562 129.061C65.2394 129.425 65.0781 129.906 65.0781 130.505V132.986H64.4249V125.822H65.0781V129.124C65.4219 128.326 66.0988 127.92 67.109 127.907C67.7225 127.907 68.2037 128.083 68.5502 128.433Z" fill="#132535"/>
<path d="M74.1959 128.232C74.5873 128.449 74.8914 128.747 75.1135 129.134C75.3356 129.522 75.4441 129.958 75.4441 130.448C75.4441 130.942 75.333 131.387 75.1135 131.774C74.8914 132.164 74.5873 132.465 74.1959 132.682C73.8046 132.899 73.363 133.006 72.8685 133.006C72.374 133.006 71.9324 132.899 71.541 132.682C71.1496 132.465 70.8455 132.164 70.6234 131.774C70.4013 131.384 70.2928 130.942 70.2928 130.448C70.2928 129.958 70.4039 129.522 70.6234 129.134C70.8455 128.747 71.1496 128.446 71.541 128.232C71.9324 128.017 72.374 127.907 72.8685 127.907C73.363 127.907 73.8072 128.015 74.1959 128.232ZM71.8742 128.718C71.5806 128.886 71.3532 129.121 71.1919 129.422C71.028 129.726 70.9486 130.068 70.9486 130.456C70.9486 130.848 71.0306 131.196 71.1919 131.499C71.3532 131.803 71.5833 132.036 71.8742 132.203C72.1677 132.371 72.4982 132.454 72.8685 132.454C73.2387 132.454 73.5719 132.371 73.8627 132.203C74.1563 132.036 74.3837 131.8 74.545 131.499C74.7063 131.196 74.7883 130.848 74.7883 130.456C74.7883 130.068 74.7063 129.726 74.545 129.422C74.381 129.119 74.1536 128.886 73.8627 128.718C73.5692 128.551 73.2387 128.467 72.8685 128.467C72.4982 128.467 72.1677 128.551 71.8742 128.718ZM74.2356 127.01H73.5613L72.879 126.277L72.1862 127.01H71.5119L72.5168 125.804H73.2387L74.2356 127.01ZM73.2017 133.849C73.2863 133.935 73.3286 134.042 73.3286 134.173C73.3286 134.304 73.2836 134.411 73.1964 134.5C73.1091 134.589 73.0033 134.636 72.879 134.636C72.7495 134.636 72.641 134.592 72.5511 134.5C72.4639 134.411 72.4189 134.301 72.4189 134.173C72.4189 134.045 72.4639 133.938 72.5511 133.849C72.6384 133.76 72.7468 133.718 72.879 133.718C73.0086 133.721 73.117 133.763 73.2017 133.849Z" fill="#132535"/>
<path d="M77.4855 126.147C77.5702 126.233 77.6125 126.34 77.6125 126.471C77.6125 126.602 77.5675 126.709 77.4802 126.798C77.393 126.887 77.2872 126.934 77.1629 126.934C77.0334 126.934 76.9249 126.89 76.835 126.798C76.7451 126.706 76.7028 126.599 76.7028 126.471C76.7028 126.343 76.7478 126.235 76.835 126.147C76.9223 126.058 77.0307 126.016 77.1629 126.016C77.2925 126.016 77.4009 126.058 77.4855 126.147ZM76.8324 127.926H77.4855V132.986H76.8324V127.926Z" fill="#132535"/>
<path d="M81.1162 129.838H85.0484V130.312H81.1162V129.838Z" fill="#132535"/>
<path d="M87.7986 126.238H88.5205L90.9507 132.253L93.3703 126.238H94.0816L91.2839 132.986H90.5805L87.7986 126.238Z" fill="#132535"/>
<path d="M100.076 127.358C100.076 127.601 100.008 127.808 99.8675 127.975C99.7274 128.143 99.5317 128.255 99.2778 128.313V132.985H98.6141V131.779C98.4449 132.18 98.1936 132.481 97.8578 132.687C97.522 132.894 97.1174 132.999 96.644 133.006C96.0385 133.006 95.5651 132.831 95.224 132.481C94.8829 132.13 94.711 131.649 94.711 131.036V127.928H95.3747V130.882C95.3747 131.358 95.507 131.73 95.7687 131.997C96.0305 132.263 96.3955 132.397 96.8556 132.397C97.403 132.392 97.8314 132.206 98.1434 131.842C98.4554 131.479 98.6115 131 98.6115 130.408V127.928H98.8944C99.1086 127.928 99.2699 127.881 99.3783 127.784C99.4867 127.688 99.5396 127.559 99.5396 127.397C99.5396 127.243 99.4947 127.075 99.4021 126.895L99.9204 126.701C100.024 126.926 100.076 127.146 100.076 127.358Z" fill="#132535"/>
<path d="M106.254 127.491C106.254 127.808 106.156 128.08 105.96 128.308C105.764 128.535 105.508 128.669 105.188 128.708C105.389 128.933 105.545 129.195 105.656 129.49C105.767 129.786 105.823 130.105 105.823 130.445C105.823 130.94 105.712 131.384 105.492 131.772C105.27 132.161 104.966 132.462 104.574 132.679C104.183 132.894 103.742 133.004 103.247 133.004C102.753 133.004 102.311 132.897 101.92 132.679C101.528 132.465 101.224 132.161 101.002 131.772C100.78 131.382 100.671 130.94 100.671 130.445C100.671 129.956 100.782 129.519 101.002 129.132C101.224 128.745 101.528 128.444 101.92 128.229C102.311 128.015 102.753 127.905 103.247 127.905C103.72 127.905 104.151 128.004 104.535 128.203C104.678 128.255 104.823 128.279 104.974 128.279C105.188 128.279 105.357 128.206 105.482 128.062C105.606 127.918 105.667 127.737 105.667 127.525C105.667 127.3 105.598 127.091 105.463 126.897L106.018 126.696C106.174 126.945 106.254 127.209 106.254 127.491ZM104.241 132.203C104.535 132.036 104.762 131.8 104.924 131.499C105.085 131.199 105.167 130.848 105.167 130.456C105.167 130.068 105.085 129.726 104.924 129.422C104.76 129.119 104.532 128.886 104.241 128.718C103.95 128.551 103.617 128.467 103.247 128.467C102.877 128.467 102.544 128.551 102.253 128.718C101.959 128.886 101.732 129.121 101.57 129.422C101.407 129.726 101.327 130.068 101.327 130.456C101.327 130.848 101.409 131.196 101.57 131.499C101.732 131.803 101.962 132.036 102.253 132.203C102.546 132.371 102.877 132.454 103.247 132.454C103.617 132.454 103.95 132.371 104.241 132.203Z" fill="#132535"/>
<path d="M111.585 128.433C111.934 128.784 112.106 129.265 112.106 129.877V132.985H111.442V130.032C111.442 129.556 111.31 129.181 111.043 128.912C110.776 128.642 110.405 128.506 109.929 128.506C109.403 128.514 108.98 128.674 108.665 128.99C108.351 129.307 108.168 129.731 108.123 130.265V132.988H107.47V127.928H108.123V129.106C108.298 128.713 108.557 128.417 108.898 128.219C109.239 128.02 109.654 127.915 110.144 127.91C110.757 127.907 111.238 128.083 111.585 128.433Z" fill="#132535"/>
<path d="M119.113 132.637C118.762 132.876 118.386 133.001 117.981 133.014C117.59 133.014 117.283 132.897 117.053 132.656C116.826 132.418 116.712 132.059 116.712 131.583V128.572H115.98L115.969 128.069H116.71V126.767H117.363V128.069L119.021 128.059V128.572H117.363V131.478C117.363 132.104 117.598 132.415 118.066 132.415C118.325 132.415 118.608 132.326 118.915 132.146L119.113 132.637Z" fill="#132535"/>
<path d="M123.506 132.985L123.495 132.135C123.294 132.431 123.03 132.651 122.704 132.797C122.379 132.941 122.006 133.014 121.583 133.014C121.239 133.014 120.935 132.949 120.671 132.815C120.406 132.682 120.203 132.501 120.06 132.271C119.917 132.041 119.846 131.779 119.846 131.489C119.846 131.052 120.018 130.707 120.359 130.456C120.7 130.204 121.171 130.079 121.768 130.079H123.487V129.692C123.487 129.294 123.365 128.983 123.125 128.765C122.884 128.546 122.532 128.438 122.07 128.438C121.522 128.438 120.972 128.64 120.42 129.045L120.126 128.601C120.47 128.363 120.8 128.187 121.112 128.075C121.424 127.962 121.781 127.905 122.186 127.905C122.805 127.905 123.283 128.056 123.619 128.363C123.958 128.669 124.13 129.092 124.138 129.631L124.148 132.98H123.506V132.985ZM122.855 132.161C123.17 131.952 123.384 131.659 123.495 131.277V130.581H121.845C121.395 130.581 121.054 130.654 120.819 130.803C120.584 130.953 120.467 131.175 120.467 131.471C120.467 131.774 120.578 132.015 120.803 132.201C121.028 132.386 121.324 132.475 121.697 132.475C122.154 132.475 122.54 132.371 122.855 132.161ZM123.611 127.067H122.889L122.109 126.489L121.319 127.067H120.597L121.641 126.199H122.569L123.611 127.067ZM121.358 124.77L122.704 125.725L122.178 125.89L120.792 125.137L121.358 124.77Z" fill="#132535"/>
<path d="M133.84 128.428C134.178 128.776 134.348 129.257 134.348 129.877V132.986H133.684V130.032C133.684 129.548 133.552 129.174 133.29 128.907C133.025 128.64 132.663 128.506 132.2 128.506C131.653 128.519 131.227 128.705 130.918 129.066C130.608 129.427 130.455 129.904 130.455 130.495V132.986H129.791V130.032C129.791 129.548 129.659 129.174 129.395 128.907C129.13 128.64 128.768 128.506 128.308 128.506C127.76 128.519 127.332 128.705 127.02 129.066C126.708 129.427 126.552 129.904 126.552 130.495V132.986H125.899V127.926H126.552V129.113C126.721 128.713 126.972 128.415 127.308 128.216C127.644 128.017 128.051 127.913 128.533 127.907C129.019 127.907 129.426 128.028 129.746 128.266C130.066 128.504 130.281 128.839 130.386 129.27C130.542 128.82 130.794 128.483 131.143 128.255C131.492 128.028 131.917 127.915 132.425 127.907C133.028 127.907 133.501 128.083 133.84 128.428Z" fill="#132535"/>
<path d="M143.431 127.926V134.859H142.778V131.826C142.582 132.206 142.31 132.501 141.958 132.711C141.606 132.92 141.196 133.025 140.728 133.025C140.247 133.025 139.819 132.915 139.441 132.698C139.062 132.478 138.772 132.174 138.563 131.779C138.354 131.387 138.251 130.942 138.251 130.448C138.251 129.953 138.356 129.511 138.568 129.124C138.779 128.737 139.073 128.436 139.446 128.216C139.819 127.996 140.244 127.889 140.72 127.889C141.189 127.889 141.601 127.996 141.955 128.208C142.31 128.42 142.585 128.716 142.78 129.095V127.928H143.431V127.926ZM141.842 132.208C142.135 132.038 142.363 131.8 142.529 131.499C142.696 131.196 142.778 130.853 142.778 130.466C142.778 130.079 142.696 129.733 142.529 129.427C142.363 129.121 142.133 128.883 141.842 128.708C141.548 128.535 141.218 128.446 140.847 128.446C140.477 128.446 140.144 128.533 139.853 128.708C139.562 128.883 139.33 129.121 139.16 129.427C138.991 129.733 138.906 130.079 138.906 130.466C138.906 130.853 138.988 131.196 139.155 131.499C139.322 131.803 139.552 132.038 139.848 132.208C140.144 132.379 140.477 132.465 140.847 132.465C141.218 132.465 141.548 132.379 141.842 132.208Z" fill="#132535"/>
<path d="M149.785 127.926V132.985H149.122V131.779C148.952 132.18 148.701 132.481 148.365 132.687C148.03 132.894 147.625 132.999 147.152 133.006C146.546 133.006 146.073 132.831 145.732 132.481C145.391 132.13 145.219 131.649 145.219 131.036V127.928H145.882V130.882C145.882 131.358 146.015 131.73 146.276 131.997C146.538 132.263 146.903 132.397 147.363 132.397C147.911 132.392 148.339 132.206 148.651 131.842C148.963 131.479 149.119 131 149.119 130.408V127.928H149.785V127.926Z" fill="#132535"/>
<path d="M155.064 128.232C155.455 128.449 155.759 128.747 155.981 129.134C156.203 129.522 156.312 129.958 156.312 130.448C156.312 130.942 156.201 131.387 155.981 131.774C155.759 132.164 155.455 132.465 155.064 132.682C154.672 132.897 154.231 133.006 153.736 133.006C153.242 133.006 152.8 132.899 152.409 132.682C152.017 132.467 151.713 132.164 151.491 131.774C151.269 131.384 151.161 130.942 151.161 130.448C151.161 129.958 151.272 129.522 151.491 129.134C151.713 128.747 152.017 128.446 152.409 128.232C152.8 128.017 153.242 127.907 153.736 127.907C154.231 127.907 154.672 128.015 155.064 128.232ZM152.742 128.718C152.448 128.886 152.221 129.121 152.06 129.422C151.896 129.726 151.816 130.068 151.816 130.456C151.816 130.848 151.898 131.196 152.06 131.499C152.221 131.803 152.451 132.036 152.742 132.203C153.035 132.371 153.366 132.454 153.736 132.454C154.106 132.454 154.44 132.371 154.73 132.203C155.024 132.036 155.251 131.8 155.413 131.499C155.574 131.199 155.656 130.848 155.656 130.456C155.656 130.068 155.574 129.726 155.413 129.422C155.249 129.119 155.021 128.886 154.73 128.718C154.44 128.551 154.106 128.467 153.736 128.467C153.366 128.467 153.033 128.551 152.742 128.718ZM155.249 127.067H154.527L153.747 126.489L152.956 127.067H152.234L153.279 126.199H154.207L155.249 127.067ZM154.469 124.77L155.024 125.137L153.649 125.89L153.112 125.725L154.469 124.77Z" fill="#132535"/>
<path d="M159.728 128.478C159.363 128.478 159.035 128.561 158.742 128.729C158.448 128.896 158.221 129.129 158.06 129.43C157.898 129.731 157.816 130.071 157.816 130.458C157.816 130.845 157.898 131.188 158.06 131.492C158.221 131.795 158.451 132.028 158.742 132.195C159.035 132.363 159.363 132.447 159.728 132.447C160.059 132.447 160.363 132.389 160.641 132.274C160.918 132.159 161.148 131.991 161.339 131.772L161.709 132.159C161.482 132.428 161.196 132.638 160.85 132.787C160.506 132.936 160.12 133.009 159.699 133.009C159.21 133.009 158.776 132.902 158.39 132.685C158.007 132.47 157.705 132.167 157.489 131.777C157.269 131.387 157.161 130.947 157.161 130.458C157.161 129.969 157.269 129.529 157.489 129.14C157.705 128.75 158.007 128.449 158.39 128.232C158.774 128.017 159.21 127.907 159.699 127.907C160.096 127.907 160.458 127.973 160.786 128.101C161.114 128.229 161.397 128.41 161.63 128.642L161.259 129.077C160.844 128.676 160.334 128.478 159.728 128.478Z" fill="#132535"/>
<path d="M168.434 132.637C168.082 132.876 167.706 133.001 167.302 133.014C166.91 133.014 166.604 132.897 166.374 132.656C166.146 132.418 166.033 132.059 166.033 131.583V128.572H165.3L165.289 128.069H166.03V126.767H166.683V128.069L168.341 128.059V128.572H166.683V131.478C166.683 132.104 166.918 132.415 167.386 132.415C167.646 132.415 167.929 132.326 168.235 132.146L168.434 132.637Z" fill="#132535"/>
<path d="M173.342 128.656C173.757 129.155 173.95 129.825 173.918 130.667H169.653C169.698 131.209 169.899 131.643 170.258 131.976C170.615 132.308 171.059 132.473 171.586 132.473C171.911 132.473 172.212 132.415 172.493 132.3C172.773 132.185 173.014 132.02 173.215 131.808L173.585 132.174C173.339 132.439 173.04 132.643 172.691 132.787C172.342 132.931 171.961 133.004 171.543 133.004C171.049 133.004 170.61 132.897 170.226 132.679C169.843 132.465 169.542 132.164 169.325 131.777C169.105 131.39 168.997 130.95 168.997 130.456C168.997 129.966 169.105 129.527 169.325 129.137C169.542 128.747 169.843 128.446 170.226 128.229C170.61 128.015 171.044 127.905 171.525 127.905C172.318 127.907 172.924 128.156 173.342 128.656ZM173.331 130.168C173.299 129.639 173.122 129.221 172.799 128.907C172.477 128.593 172.056 128.438 171.535 128.438C171.022 128.438 170.591 128.595 170.248 128.912C169.904 129.228 169.706 129.644 169.653 130.168H173.331ZM172.99 127.067H172.268L171.488 126.489L170.697 127.067H169.975L171.02 126.199H171.948L172.99 127.067ZM172.21 124.77L172.765 125.137L171.39 125.89L170.853 125.725L172.21 124.77Z" fill="#132535"/>
<path d="M18.1034 94.7172C16.8632 94.0971 15.6177 93.7858 14.3643 93.7858C12.8543 93.7858 11.474 94.152 10.2205 94.8872C8.9671 95.6224 7.98339 96.6218 7.26676 97.8855C6.55014 99.1518 6.19315 100.554 6.19315 102.098C6.19315 103.641 6.55014 105.051 7.26676 106.328C7.98339 107.605 8.9671 108.617 10.2205 109.363C11.474 110.111 12.8543 110.483 14.3643 110.483C15.5648 110.483 16.7865 110.198 18.0267 109.63C19.2669 109.06 20.3723 108.296 21.3454 107.335L24.9127 111.168C23.4794 112.636 21.7976 113.8 19.8699 114.658C17.9395 115.519 16.0011 115.948 14.0575 115.948C11.4237 115.948 9.03321 115.347 6.88597 114.146C4.73874 112.945 3.05163 111.294 1.82199 109.193C0.595002 107.095 -0.0184937 104.753 -0.0184937 102.171C-0.0184937 99.6148 0.608224 97.302 1.86166 95.2273C3.11509 93.1526 4.83394 91.5227 7.02084 90.3323C9.20774 89.1445 11.63 88.548 14.2902 88.548C16.2338 88.548 18.151 88.9456 20.0444 89.7436C21.9351 90.5416 23.5482 91.6221 24.8757 92.9878L21.3481 97.2759C20.4252 96.1901 19.3436 95.3372 18.1034 94.7172Z" fill="#132535"/>
<path d="M47.1783 97.0142C48.5455 98.4323 49.2304 100.329 49.2304 102.707V115.535H43.3228V104.416C43.3228 103.126 42.9579 102.108 42.2281 101.36C41.4982 100.614 40.5092 100.24 39.2558 100.24C37.7987 100.266 36.6405 100.763 35.7837 101.739C34.9269 102.715 34.4985 103.96 34.4985 105.478V115.535H28.591V87.3732H34.4985V98.7201C35.9292 96.2163 38.3091 94.9395 41.6331 94.8872C43.9628 94.8872 45.8085 95.5962 47.1783 97.0142Z" fill="#132535"/>
<path d="M66.2601 115.532V113.141C65.57 114.002 64.6735 114.658 63.5735 115.114C62.4734 115.569 61.2067 115.797 59.7761 115.797C57.6025 115.797 55.8757 115.208 54.5984 114.033C53.3186 112.858 52.6813 111.32 52.6813 109.423C52.6813 107.5 53.3662 106.001 54.7333 104.926C56.1005 103.851 58.0361 103.301 60.543 103.275H66.2205V102.896C66.2205 101.81 65.8556 100.967 65.1284 100.374C64.3985 99.7796 63.3302 99.4814 61.9234 99.4814C60.0062 99.4814 57.9594 100.078 55.7884 101.266L53.9479 97.2445C55.5822 96.436 57.1185 95.8395 58.5491 95.4602C59.9798 95.0808 61.5532 94.8898 63.2667 94.8898C66.0301 94.8898 68.172 95.536 69.6925 96.8259C71.2131 98.1157 71.9852 99.9131 72.0117 102.215L72.0513 115.535H66.2601V115.532ZM64.6101 110.75C65.5039 110.169 66.0407 109.436 66.2205 108.549V106.728H61.5796C60.4293 106.728 59.5805 106.912 59.0304 107.281C58.4777 107.647 58.2054 108.235 58.2054 109.044C58.2054 109.829 58.491 110.454 59.0674 110.922C59.6439 111.391 60.4293 111.624 61.4262 111.624C62.6532 111.624 63.7136 111.333 64.6101 110.75Z" fill="#132535"/>
<path d="M95.6974 97.0142C97.0645 98.4323 97.7494 100.329 97.7494 102.707V115.535H91.8419V104.416C91.8419 103.126 91.4769 102.108 90.7497 101.36C90.0199 100.614 89.0309 100.24 87.7775 100.24C86.3204 100.266 85.1701 100.763 84.3239 101.739C83.4803 102.715 83.0599 103.96 83.0599 105.478V115.535H77.1523V95.1174H83.0599V98.686C84.4905 96.2084 86.8678 94.9421 90.1944 94.8898C92.495 94.8872 94.3302 95.5962 95.6974 97.0142Z" fill="#132535"/>
<path d="M122.183 95.1148V113.633C122.183 115.556 121.723 117.23 120.803 118.661C119.883 120.092 118.592 121.191 116.929 121.963C115.266 122.735 113.349 123.12 111.175 123.12C109.488 123.12 107.883 122.879 106.362 122.4C104.842 121.919 103.453 121.262 102.2 120.427L104.387 116.328C106.33 117.693 108.464 118.376 110.791 118.376C112.479 118.376 113.822 117.965 114.819 117.144C115.816 116.322 116.316 115.216 116.316 113.824V111.511C115.625 112.471 114.755 113.206 113.706 113.711C112.656 114.216 111.455 114.47 110.101 114.47C108.337 114.47 106.769 114.059 105.402 113.238C104.032 112.416 102.972 111.26 102.218 109.766C101.465 108.275 101.087 106.553 101.087 104.607C101.087 102.684 101.462 100.996 102.218 99.539C102.972 98.0843 104.035 96.9541 105.402 96.143C106.769 95.3346 108.335 94.9291 110.101 94.9291C111.431 94.9291 112.619 95.1907 113.669 95.7061C114.718 96.2241 115.599 96.9541 116.316 97.8881V95.1174H122.183V95.1148ZM114.972 108.568C115.869 107.594 116.316 106.323 116.316 104.753C116.316 103.186 115.869 101.907 114.972 100.92C114.076 99.934 112.915 99.4395 111.482 99.4395C110.048 99.4395 108.888 99.934 107.991 100.92C107.095 101.907 106.637 103.186 106.611 104.753C106.637 106.323 107.089 107.594 107.973 108.568C108.856 109.541 110.025 110.028 111.482 110.028C112.912 110.028 114.076 109.541 114.972 108.568Z" fill="#132535"/>
<path d="M160.326 96.9933C161.669 98.3983 162.338 100.3 162.338 102.705V115.532H156.47V104.413C156.47 103.097 156.111 102.072 155.397 101.339C154.68 100.606 153.71 100.238 152.483 100.238C151.076 100.264 149.963 100.756 149.146 101.718C148.326 102.679 147.919 103.919 147.919 105.436V115.53H142.051V104.41C142.051 103.121 141.699 102.103 140.996 101.355C140.292 100.609 139.327 100.235 138.1 100.235C136.693 100.261 135.575 100.753 134.744 101.716C133.914 102.676 133.499 103.916 133.499 105.433V115.527H127.591V95.1096H133.499V98.639C134.929 96.1849 137.256 94.9343 140.48 94.882C142.217 94.882 143.688 95.2927 144.891 96.1169C146.091 96.9384 146.948 98.0948 147.461 99.5887C148.125 98.0451 149.09 96.8808 150.357 96.0986C151.623 95.3137 153.136 94.9108 154.902 94.8846C157.174 94.8872 158.985 95.591 160.326 96.9933Z" fill="#132535"/>
<path d="M172.675 86.9573C173.275 87.5642 173.577 88.3491 173.577 89.3093C173.577 90.2695 173.275 91.0544 172.675 91.6613C172.075 92.2683 171.3 92.5718 170.356 92.5718C169.436 92.5718 168.674 92.2631 168.074 91.6404C167.474 91.0203 167.172 90.2433 167.172 89.3067C167.172 88.3439 167.474 87.5616 168.074 86.9546C168.674 86.3477 169.436 86.0442 170.356 86.0442C171.303 86.0468 172.075 86.3503 172.675 86.9573ZM167.442 95.1148H173.349V115.532H167.442V95.1148Z" fill="#132535"/>
<path fill-rule="evenodd" clip-rule="evenodd" d="M70.6287 24.5669C74.4392 20.7968 80.5107 20.8177 84.3107 24.3733C84.5963 24.6401 85.2653 25.3177 85.5218 25.6239C81.6267 23.8788 77.3718 25.6055 76.7081 30.0244C76.5918 30.7962 76.5574 31.5419 76.4384 32.4288C75.9016 36.416 70.8508 37.6954 68.5661 33.6637C67.987 32.6433 67.6802 31.4137 67.8336 30.2076C68.0954 28.1433 69.0288 26.1497 70.6287 24.5669Z" fill="#3670B7"/>
<path fill-rule="evenodd" clip-rule="evenodd" d="M67.2068 52.0247C64.7608 47.2762 66.6568 41.5674 71.2474 39.0924C71.5912 38.9067 72.4506 38.4881 72.8261 38.339C69.9438 41.4654 70.2902 45.9994 74.3334 47.9904C75.0395 48.3384 75.7455 48.6 76.56 48.9872C80.2251 50.7244 79.8946 55.8706 75.3118 56.7759C74.151 57.0061 72.8737 56.9145 71.7631 56.3965C69.8644 55.5122 68.2355 54.0183 67.2068 52.0247Z" fill="#3670B7"/>
<path fill-rule="evenodd" clip-rule="evenodd" d="M92.5452 63.7273C87.2248 64.5619 82.3221 61.0142 81.3622 55.9282C81.2908 55.5462 81.1533 54.6096 81.1268 54.2119C83.2423 57.8904 87.7087 58.9657 90.8714 55.7765C91.424 55.2192 91.8947 54.6358 92.5162 53.9895C95.3192 51.0776 100.164 52.977 99.619 57.5712C99.4814 58.7355 99.0002 59.9076 98.1566 60.7945C96.7181 62.3067 94.7797 63.3767 92.5452 63.7273Z" fill="#3670B7"/>
<path fill-rule="evenodd" clip-rule="evenodd" d="M111.624 43.5035C110.781 48.7675 105.857 52.2837 100.671 51.6166C100.283 51.5669 99.3386 51.4073 98.9473 51.3079C103.136 50.455 105.55 46.5855 103.464 42.6218C103.099 41.9311 102.684 41.3058 102.253 40.5209C100.32 36.9837 103.644 33.0122 107.891 34.943C108.967 35.4323 109.945 36.2486 110.538 37.3134C111.548 39.1369 111.979 41.2928 111.624 43.5035Z" fill="#3670B7"/>
<path fill-rule="evenodd" clip-rule="evenodd" d="M98.0799 19.3003C102.879 21.7204 104.738 27.4395 102.493 32.1122C102.324 32.4628 101.88 33.3026 101.663 33.6375C102.136 29.4332 99.1641 25.964 94.7083 26.7044C93.9309 26.8326 93.2037 27.0314 92.3152 27.1936C88.3169 27.9183 85.5271 23.5648 88.695 20.1663C89.4989 19.3055 90.5831 18.6358 91.7916 18.4081C93.8595 18.0236 96.0649 18.2826 98.0799 19.3003Z" fill="#3670B7"/>
<path fill-rule="evenodd" clip-rule="evenodd" d="M76.4595 40.8532C76.4595 38.2997 78.5248 36.2695 81.029 36.2014C81.2168 36.1962 81.6769 36.2014 81.8673 36.2198C79.9501 36.934 79.0986 38.9459 80.3891 40.6648C80.6138 40.9657 80.8571 41.2299 81.1216 41.5701C82.3036 43.1006 81.0317 45.2276 78.8765 44.6285C78.3291 44.4768 77.8055 44.1628 77.4432 43.7023C76.8271 42.9148 76.4595 41.9259 76.4595 40.8532Z" fill="#EF4C48"/>
<path fill-rule="evenodd" clip-rule="evenodd" d="M84.7047 51.3052C82.2481 50.5151 80.9364 47.9459 81.6451 45.5677C81.698 45.3898 81.8461 44.9581 81.9228 44.7829C82.018 46.8078 83.6866 48.2285 85.7386 47.5483C86.0956 47.4305 86.4262 47.2814 86.8334 47.1401C88.6713 46.4991 90.3214 48.3541 89.0785 50.1985C88.7638 50.6669 88.301 51.0619 87.7457 51.2607C86.799 51.5956 85.736 51.6349 84.7047 51.3052Z" fill="#EF4C48"/>
<path fill-rule="evenodd" clip-rule="evenodd" d="M97.2972 46.7765C95.7793 48.8433 92.9049 49.2829 90.837 47.8832C90.681 47.7785 90.3134 47.5064 90.168 47.3808C92.1433 47.9172 94.0261 46.7843 94.005 44.6442C94.0023 44.2701 93.96 43.9143 93.9494 43.4878C93.9018 41.5622 96.1945 40.5811 97.5828 42.3209C97.9345 42.7605 98.1725 43.3204 98.191 43.9038C98.2254 44.8954 97.9345 45.9079 97.2972 46.7765Z" fill="#EF4C48"/>
<path fill-rule="evenodd" clip-rule="evenodd" d="M96.8345 33.5276C98.3524 35.5945 97.8869 38.4358 95.901 39.948C95.7529 40.0605 95.3774 40.3247 95.2108 40.4215C96.3373 38.7288 95.8296 36.607 93.767 35.966C93.4074 35.8535 93.053 35.7829 92.6379 35.6599C90.7709 35.1105 90.5382 32.6485 92.6379 31.882C93.1694 31.6884 93.7802 31.636 94.3461 31.7983C95.314 32.073 96.1972 32.659 96.8345 33.5276Z" fill="#EF4C48"/>
<path fill-rule="evenodd" clip-rule="evenodd" d="M83.959 29.8674C86.4156 29.0773 89.0018 30.3933 89.8427 32.7297C89.9062 32.9049 90.0411 33.3392 90.0834 33.525C88.8035 31.9422 86.6087 31.7642 85.3526 33.5067C85.1331 33.8102 84.9559 34.1215 84.71 34.4747C83.6046 36.0602 81.1665 35.5212 81.0766 33.3078C81.0528 32.748 81.193 32.1567 81.5235 31.6753C82.0894 30.8512 82.9277 30.1997 83.959 29.8674Z" fill="#EF4C48"/>
<path fill-rule="evenodd" clip-rule="evenodd" d="M86.5769 0.0601807C95.9697 0.0601807 103.429 7.49041 103.683 16.5061C103.702 17.1837 103.681 18.8346 103.617 19.5253C100.989 12.6235 93.5977 9.56512 87.2723 14.2012C86.1696 15.0096 85.1965 15.8887 83.9457 16.8358C78.3158 21.0924 70.4991 16.514 72.7045 8.75407C73.2624 6.78925 74.4154 4.89768 76.1104 3.60001C79.0007 1.3814 82.6341 0.0601807 86.5769 0.0601807Z" fill="#EF4C48"/>
<path fill-rule="evenodd" clip-rule="evenodd" d="M48.1515 29.734C51.055 20.8962 60.5007 16.1712 69.2457 18.7195C69.9015 18.9105 71.4828 19.4416 72.128 19.7163C64.6815 20.0564 59.4562 26.066 61.9604 33.4517C62.3967 34.7416 62.9415 35.9267 63.465 37.3945C65.8185 44.0058 58.9987 49.9474 52.2212 45.4762C50.505 44.3433 49.0426 42.6741 48.3181 40.6805C47.0805 37.2715 46.9324 33.4439 48.1515 29.734Z" fill="#EF4C48"/>
<path fill-rule="evenodd" clip-rule="evenodd" d="M64.8031 75.0611C57.2058 69.5983 55.5822 59.2509 60.7334 51.8102C61.1195 51.2529 62.1191 49.9265 62.5818 49.4058C60.6091 56.5195 64.7714 63.293 72.6437 63.2172C74.0161 63.2041 75.3251 63.0576 76.8985 63.0209C83.9828 62.8509 87.5844 71.1026 81.193 76.0971C79.572 77.3634 77.5173 78.2215 75.3753 78.2869C71.7182 78.3994 67.9922 77.3555 64.8031 75.0611Z" fill="#EF4C48"/>
<path fill-rule="evenodd" clip-rule="evenodd" d="M113.518 73.3997C105.921 78.8625 95.4699 77.1907 89.9088 70.043C89.491 69.5067 88.5285 68.1567 88.1688 67.5602C94.3963 71.6154 102.195 69.7919 104.556 62.3616C104.969 61.0666 105.233 59.7898 105.683 58.2959C107.708 51.5773 116.752 50.7375 119.579 58.2959C120.295 60.2111 120.486 62.4087 119.885 64.4468C118.865 67.9239 116.71 71.1052 113.518 73.3997Z" fill="#EF4C48"/>
<path fill-rule="evenodd" clip-rule="evenodd" d="M126.978 27.0471C129.881 35.8849 125.045 45.2015 116.456 48.2233C115.811 48.4509 114.216 48.9401 113.531 49.0945C119.354 44.4872 120.01 36.5861 113.597 32.0678C112.479 31.2803 111.334 30.6366 110.038 29.7523C104.204 25.7704 106.193 17.0006 114.332 16.6762C116.395 16.5951 118.569 17.0948 120.34 18.2878C123.365 20.3259 125.759 23.3346 126.978 27.0471Z" fill="#EF4C48"/>
</g>
<defs>
<clipPath id="clip0">
<rect width="174" height="135" fill="white"/>
</clipPath>
</defs>
</svg>
