<svg width="81" height="79" viewBox="0 0 81 79" fill="none" xmlns="http://www.w3.org/2000/svg">
<path fill-rule="evenodd" clip-rule="evenodd" d="M23.6287 24.5669C27.4392 20.7968 33.5107 20.8177 37.3107 24.3733C37.5963 24.6401 38.2653 25.3177 38.5218 25.6239C34.6267 23.8788 30.3718 25.6055 29.7081 30.0244C29.5918 30.7962 29.5574 31.5419 29.4384 32.4288C28.9016 36.416 23.8508 37.6954 21.5661 33.6637C20.987 32.6433 20.6802 31.4137 20.8336 30.2076C21.0954 28.1433 22.0288 26.1497 23.6287 24.5669Z" fill="#3670B7"/>
<path fill-rule="evenodd" clip-rule="evenodd" d="M20.2068 52.0247C17.7608 47.2762 19.6568 41.5674 24.2474 39.0924C24.5912 38.9067 25.4506 38.4881 25.8261 38.339C22.9438 41.4654 23.2902 45.9994 27.3334 47.9904C28.0395 48.3384 28.7455 48.6 29.56 48.9872C33.2251 50.7244 32.8946 55.8706 28.3118 56.7759C27.151 57.0061 25.8737 56.9145 24.7631 56.3965C22.8644 55.5122 21.2355 54.0183 20.2068 52.0247Z" fill="#3670B7"/>
<path fill-rule="evenodd" clip-rule="evenodd" d="M45.5452 63.7273C40.2248 64.5619 35.3221 61.0142 34.3622 55.9282C34.2908 55.5462 34.1533 54.6096 34.1268 54.2119C36.2423 57.8904 40.7087 58.9657 43.8714 55.7765C44.424 55.2192 44.8947 54.6358 45.5162 53.9895C48.3192 51.0776 53.1637 52.977 52.619 57.5712C52.4814 58.7355 52.0002 59.9076 51.1566 60.7945C49.7181 62.3067 47.7797 63.3767 45.5452 63.7273Z" fill="#3670B7"/>
<path fill-rule="evenodd" clip-rule="evenodd" d="M64.6244 43.5035C63.7809 48.7675 58.857 52.2837 53.6714 51.6166C53.2827 51.5669 52.3386 51.4073 51.9473 51.3079C56.136 50.455 58.5503 46.5855 56.4639 42.6218C56.0989 41.9311 55.6838 41.3058 55.2527 40.5209C53.3197 36.9837 56.6437 33.0122 60.8906 34.943C61.9668 35.4323 62.9452 36.2486 63.5376 37.3134C64.5477 39.1369 64.9788 41.2928 64.6244 43.5035Z" fill="#3670B7"/>
<path fill-rule="evenodd" clip-rule="evenodd" d="M51.0799 19.3003C55.8795 21.7204 57.7385 27.4395 55.4934 32.1122C55.3241 32.4628 54.8799 33.3026 54.663 33.6375C55.1364 29.4332 52.1641 25.964 47.7083 26.7044C46.9309 26.8326 46.2037 27.0314 45.3152 27.1936C41.3169 27.9183 38.5271 23.5648 41.695 20.1663C42.4989 19.3055 43.5831 18.6358 44.7916 18.4081C46.8595 18.0236 49.0649 18.2826 51.0799 19.3003Z" fill="#3670B7"/>
<path fill-rule="evenodd" clip-rule="evenodd" d="M29.4595 40.8532C29.4595 38.2997 31.5248 36.2695 34.029 36.2014C34.2168 36.1962 34.6769 36.2014 34.8673 36.2198C32.9501 36.934 32.0986 38.9459 33.3891 40.6648C33.6138 40.9657 33.8571 41.2299 34.1216 41.5701C35.3036 43.1006 34.0317 45.2276 31.8765 44.6285C31.3291 44.4768 30.8055 44.1628 30.4432 43.7023C29.8271 42.9148 29.4595 41.9259 29.4595 40.8532Z" fill="#EF4C48"/>
<path fill-rule="evenodd" clip-rule="evenodd" d="M37.7047 51.3052C35.2481 50.5151 33.9364 47.9459 34.6451 45.5677C34.698 45.3898 34.8461 44.9581 34.9228 44.7829C35.018 46.8078 36.6866 48.2285 38.7386 47.5483C39.0956 47.4305 39.4262 47.2814 39.8334 47.1401C41.6713 46.4991 43.3214 48.3541 42.0785 50.1985C41.7638 50.6669 41.301 51.0619 40.7457 51.2607C39.799 51.5956 38.736 51.6349 37.7047 51.3052Z" fill="#EF4C48"/>
<path fill-rule="evenodd" clip-rule="evenodd" d="M50.2972 46.7765C48.7793 48.8433 45.9049 49.2829 43.837 47.8832C43.681 47.7785 43.3134 47.5064 43.168 47.3808C45.1433 47.9172 47.0261 46.7843 47.005 44.6442C47.0023 44.2701 46.96 43.9143 46.9494 43.4878C46.9018 41.5622 49.1945 40.5811 50.5828 42.3209C50.9345 42.7605 51.1725 43.3204 51.191 43.9038C51.2254 44.8954 50.9345 45.9079 50.2972 46.7765Z" fill="#EF4C48"/>
<path fill-rule="evenodd" clip-rule="evenodd" d="M49.8345 33.5276C51.3524 35.5945 50.8869 38.4358 48.901 39.948C48.7529 40.0605 48.3774 40.3247 48.2108 40.4215C49.3373 38.7288 48.8296 36.607 46.767 35.966C46.4074 35.8535 46.053 35.7829 45.6379 35.6599C43.7709 35.1105 43.5382 32.6485 45.6379 31.882C46.1694 31.6884 46.7802 31.636 47.3461 31.7983C48.314 32.073 49.1972 32.659 49.8345 33.5276Z" fill="#EF4C48"/>
<path fill-rule="evenodd" clip-rule="evenodd" d="M36.959 29.8674C39.4156 29.0773 42.0018 30.3933 42.8427 32.7297C42.9062 32.9049 43.0411 33.3392 43.0834 33.525C41.8035 31.9422 39.6087 31.7642 38.3526 33.5067C38.1331 33.8102 37.9559 34.1215 37.71 34.4747C36.6046 36.0602 34.1665 35.5212 34.0766 33.3078C34.0528 32.748 34.193 32.1567 34.5235 31.6753C35.0894 30.8512 35.9277 30.1997 36.959 29.8674Z" fill="#EF4C48"/>
<path fill-rule="evenodd" clip-rule="evenodd" d="M39.5769 0.0601807C48.9697 0.0601807 56.4295 7.49041 56.6833 16.5061C56.7019 17.1837 56.6807 18.8346 56.6172 19.5253C53.9887 12.6235 46.5977 9.56512 40.2723 14.2012C39.1696 15.0096 38.1965 15.8887 36.9457 16.8358C31.3158 21.0924 23.4991 16.514 25.7045 8.75407C26.2624 6.78925 27.4154 4.89768 29.1104 3.60001C32.0007 1.3814 35.6341 0.0601807 39.5769 0.0601807Z" fill="#EF4C48"/>
<path fill-rule="evenodd" clip-rule="evenodd" d="M1.15146 29.734C4.05499 20.8962 13.5007 16.1712 22.2457 18.7195C22.9015 18.9105 24.4828 19.4416 25.128 19.7163C17.6815 20.0564 12.4562 26.066 14.9604 33.4517C15.3967 34.7416 15.9415 35.9267 16.465 37.3945C18.8185 44.0058 11.9987 49.9474 5.22116 45.4762C3.50495 44.3433 2.04262 42.6741 1.31806 40.6805C0.0804884 37.2715 -0.0675981 33.4439 1.15146 29.734Z" fill="#EF4C48"/>
<path fill-rule="evenodd" clip-rule="evenodd" d="M17.8031 75.0611C10.2058 69.5983 8.58218 59.2509 13.7334 51.8102C14.1195 51.2529 15.1191 49.9265 15.5818 49.4058C13.6091 56.5195 17.7714 63.293 25.6437 63.2172C27.0161 63.2041 28.3251 63.0576 29.8985 63.0209C36.9828 62.8509 40.5844 71.1026 34.193 76.0971C32.572 77.3634 30.5173 78.2215 28.3753 78.2869C24.7182 78.3994 20.9922 77.3555 17.8031 75.0611Z" fill="#EF4C48"/>
<path fill-rule="evenodd" clip-rule="evenodd" d="M66.5178 73.3997C58.9205 78.8625 48.4699 77.1907 42.9088 70.043C42.491 69.5067 41.5285 68.1567 41.1688 67.5602C47.3963 71.6154 55.1946 69.7919 57.556 62.3616C57.9686 61.0666 58.233 59.7898 58.6825 58.2959C60.7081 51.5773 69.7519 50.7375 72.5787 58.2959C73.2954 60.2111 73.4858 62.4087 72.8855 64.4468C71.8648 67.9239 69.7096 71.1052 66.5178 73.3997Z" fill="#EF4C48"/>
<path fill-rule="evenodd" clip-rule="evenodd" d="M79.9777 27.0471C82.8812 35.8849 78.0447 45.2015 69.4557 48.2233C68.8105 48.4509 67.2159 48.9401 66.531 49.0945C72.354 44.4872 73.0098 36.5861 66.5971 32.0678C65.4786 31.2803 64.3336 30.6366 63.0378 29.7523C57.2043 25.7704 59.1929 17.0006 67.3323 16.6762C69.3949 16.5951 71.5686 17.0948 73.3403 18.2878C76.3655 20.3259 78.7586 23.3346 79.9777 27.0471Z" fill="#EF4C48"/>
</svg>
